<?xml version="1.0" encoding="UTF-8"?>
<svg
  xmlns="http://www.w3.org/2000/svg"
  viewBox="-8 -18 152 168"
  role="img"
  aria-hidden="true"
>
  <!-- Symbole « S » Safran uniquement (bleu #1477c6), extrait du logo Commons -->
  <g transform="matrix(1.25,0,0,-1.25,-74.8675,235.88844)">
    <path
      fill="#1477c6"
      d="m 165.072,154.594 c -9.175,21 -30.368,35.199 -54.344,34.052 -23.94,-1.154 -43.652,-17.27 -50.796,-39.007 -0.012,-0.04 -0.026,-0.078 -0.038,-0.118 l 0.262,0.013 c 0.008,0.021 0.018,0.043 0.027,0.065 8.03,18.283 27.497,31.709 50.845,32.832 23.367,1.124 44.049,-10.396 53.784,-27.855 l 0.26,0.018"
    />
    <path
      fill="#1477c6"
      d="m 61.893,108.369 c 9.18,-20.982 30.366,-35.166 54.33,-34.011 23.967,1.15 43.7,17.308 50.824,39.084 l -0.271,-0.01 C 158.758,95.133 139.279,81.692 115.921,80.57 92.572,79.449 71.898,90.951 62.157,108.389 l -0.264,-0.02"
    />
    <path
      fill="#1477c6"
      d="m 143.535,111.34 c 0,-9.49 -16.707,-19.291 -16.707,-19.291 30.845,11.258 33.516,26.951 33.516,32.935 0,13.216 -13.451,17.406 -28.329,19.49 -11.572,1.619 -20.159,1.638 -28.209,2.464 -12.8,1.311 -16.432,4.61 -16.432,9.495 0,9.241 17.994,19.473 17.994,19.473 -29.289,-9.415 -35.76,-23.868 -35.76,-32.881 0,-21.718 42.994,-21.48 60.276,-23.298 10.67,-1.123 13.692,-4.866 13.651,-8.387"
    />
  </g>
</svg>
